<?xml version="1.0" encoding="UTF-8"?>
<svg version="1.1" xmlns="http://www.w3.org/2000/svg" width="661" height="468">
<path d="M0 0 C218.13 0 436.26 0 661 0 C661 154.44 661 308.88 661 468 C442.87 468 224.74 468 0 468 C0 313.56 0 159.12 0 0 Z " fill="#E4F5F3" transform="translate(0,0)"/>
<path d="M0 0 C1.06145233 -0.01583633 2.12290466 -0.03167267 3.21652222 -0.04798889 C4.35823883 -0.04302902 5.49995544 -0.03806915 6.67626953 -0.03295898 C7.85496613 -0.03915756 9.03366272 -0.04535614 10.24807739 -0.05174255 C12.74122288 -0.05884603 15.23441575 -0.05565763 17.72753906 -0.04296875 C21.53816395 -0.02912871 25.3463218 -0.0631403 29.15673828 -0.10131836 C31.57991596 -0.10226979 34.00309672 -0.10040947 36.42626953 -0.09545898 C37.56393768 -0.10871719 38.70160583 -0.1219754 39.87374878 -0.13563538 C48.69908717 -0.03204534 48.69908717 -0.03204534 52.38769531 2.82275391 C55.46176669 6.45143926 55.81017869 9.1605084 55.80433655 13.81085205 C55.80639854 15.08122314 55.80639854 15.08122314 55.8085022 16.3772583 C55.80310928 17.75829742 55.80310928 17.75829742 55.79760742 19.16723633 C55.79775345 20.14317749 55.79789948 21.11911865 55.79804993 22.12463379 C55.79735343 25.34946925 55.78957329 28.5742469 55.78173828 31.79907227 C55.77987317 34.03537972 55.77844971 36.27168759 55.77745056 38.50799561 C55.77363274 44.3934441 55.76380869 50.2788679 55.75274658 56.16430664 C55.74251669 62.17016262 55.73794956 68.17602259 55.73291016 74.18188477 C55.72218579 85.96574978 55.70511815 97.74959647 55.68408203 109.53344727 C59.64408203 109.53344727 63.60408203 109.53344727 67.68408203 109.53344727 C67.68408203 91.38344727 67.68408203 73.23344727 67.68408203 54.53344727 C73.52095703 54.43032227 79.35783203 54.32719727 85.37158203 54.22094727 C87.20551514 54.17542725 89.03944824 54.12990723 90.92895508 54.08300781 C92.39288507 54.06839616 93.85683546 54.05565708 95.32080078 54.04516602 C96.44838806 54.00679626 96.44838806 54.00679626 97.59875488 53.96765137 C101.58530481 53.96435288 103.44975559 54.35292411 106.64428711 56.81396484 C109.51350399 60.63924394 109.80772272 63.61323888 109.8293457 68.31445312 C109.83572556 69.25900864 109.84210541 70.20356415 109.84867859 71.17674255 C109.85034782 72.69715904 109.85034782 72.69715904 109.85205078 74.24829102 C109.85537918 75.29618301 109.85870758 76.34407501 109.86213684 77.42372131 C109.86719653 79.63859621 109.86954546 81.85347871 109.86938477 84.06835938 C109.8715715 87.45463623 109.88973823 90.8405874 109.90869141 94.22680664 C109.91162547 96.37980032 109.91361018 98.53279554 109.91455078 100.68579102 C109.9217363 101.69737778 109.92892181 102.70896454 109.93632507 103.75120544 C109.93324844 104.69891312 109.93017181 105.64662079 109.92700195 106.62304688 C109.92842697 107.45259384 109.92985199 108.28214081 109.93132019 109.13682556 C109.53804951 112.94902452 108.27519718 115.63672254 106.17840576 118.81756592 C102.25335655 121.517664 98.42914403 121.05809796 93.77490234 120.98754883 C92.26709953 120.98842499 92.26709953 120.98842499 90.72883606 120.98931885 C87.40627512 120.98653212 84.08461125 120.9554113 80.76220703 120.92407227 C78.4586435 120.916612 76.15507361 120.91091806 73.85150146 120.90692139 C67.78833496 120.89164833 61.7255517 120.8523516 55.66253662 120.80810547 C49.47576075 120.76718911 43.28892296 120.74891811 37.10205078 120.72875977 C24.96255948 120.68585939 12.82335262 120.61758744 0.68408203 120.53344727 C0.68408203 124.49344727 0.68408203 128.45344727 0.68408203 132.53344727 C18.83408203 132.53344727 36.98408203 132.53344727 55.68408203 132.53344727 C55.72533203 137.87532227 55.76658203 143.21719727 55.80908203 148.72094727 C55.82729004 150.39825928 55.84549805 152.07557129 55.86425781 153.80371094 C55.87010326 155.14460938 55.8751987 156.48551139 55.87939453 157.82641602 C55.88962646 158.51336548 55.8998584 159.20031494 55.91040039 159.90808105 C55.91234398 165.29085415 55.23877068 168.6374508 51.81689453 172.81054688 C46.90141942 175.51382835 42.0806543 175.12388305 36.55908203 175.09985352 C34.78960205 175.10915138 34.78960205 175.10915138 32.984375 175.11863708 C30.49300969 175.12573355 28.00159695 175.12256437 25.51025391 175.10986328 C21.69751823 175.09599613 17.88723555 175.13007776 14.07470703 175.16821289 C11.65283143 175.16916407 9.23095276 175.16730535 6.80908203 175.16235352 C5.66938965 175.17561172 4.52969727 175.18886993 3.35546875 175.20252991 C-4.51130588 175.1099179 -4.51130588 175.1099179 -8.51123047 172.24414062 C-10.96666226 168.55601032 -11.44166709 165.62974629 -11.43617249 161.25604248 C-11.43754715 160.40912842 -11.43892181 159.56221436 -11.44033813 158.68963623 C-11.43494522 157.30859711 -11.43494522 157.30859711 -11.42944336 155.8996582 C-11.42958939 154.92371704 -11.42973541 153.94777588 -11.42988586 152.94226074 C-11.42918937 149.71742528 -11.42140923 146.49264763 -11.41357422 143.26782227 C-11.41170911 141.03151481 -11.41028564 138.79520694 -11.4092865 136.55889893 C-11.40546867 130.67345044 -11.39564462 124.78802663 -11.38458252 118.90258789 C-11.37435263 112.89673191 -11.36978549 106.89087195 -11.36474609 100.88500977 C-11.35402173 89.10114475 -11.33695409 77.31729806 -11.31591797 65.53344727 C-15.27591797 65.53344727 -19.23591797 65.53344727 -23.31591797 65.53344727 C-23.31591797 83.68344727 -23.31591797 101.83344727 -23.31591797 120.53344727 C-29.15279297 120.65719727 -34.98966797 120.78094727 -41.00341797 120.90844727 C-42.83735107 120.96307129 -44.67128418 121.01769531 -46.56079102 121.07397461 C-48.02471283 121.0915085 -49.48866403 121.10679542 -50.95263672 121.11938477 C-51.70436157 121.15008057 -52.45608643 121.18077637 -53.23059082 121.21240234 C-56.16350287 121.21531439 -58.55801956 121.1371494 -60.91055298 119.26324463 C-64.33433322 115.30455372 -65.4349678 111.9847693 -65.47705078 106.88183594 C-65.48665833 105.94043259 -65.49626587 104.99902924 -65.50616455 104.02909851 C-65.51041443 103.01346329 -65.51466431 101.99782806 -65.51904297 100.95141602 C-65.52474304 99.90448074 -65.53044312 98.85754547 -65.53631592 97.77888489 C-65.54576563 95.56223562 -65.55229978 93.34557231 -65.55615234 91.12890625 C-65.56585013 87.74462236 -65.5968711 84.36094778 -65.62841797 80.97680664 C-65.63494895 78.82251337 -65.64019905 76.66821576 -65.64404297 74.51391602 C-65.65638977 73.50435349 -65.66873657 72.49479095 -65.68145752 71.45463562 C-65.66181634 65.2315774 -65.05164357 60.87581425 -60.97867107 55.89966869 C-58.86293006 54.16124421 -57.75986117 54.16276294 -55.0448761 54.17268372 C-54.17409424 54.16855972 -53.30331238 54.16443573 -52.40614319 54.16018677 C-51.45380295 54.1709726 -50.50146271 54.18175842 -49.52026367 54.19287109 C-48.51520782 54.19243301 -47.51015198 54.19199493 -46.47463989 54.19154358 C-43.14679658 54.19363651 -39.81945471 54.21699177 -36.49169922 54.24047852 C-34.18670426 54.24607266 -31.88170573 54.25034362 -29.57670593 54.25334167 C-23.50538308 54.26480465 -17.43427501 54.29428453 -11.36303711 54.32745361 C-5.16962591 54.35812308 1.02381994 54.37184034 7.21728516 54.38696289 C19.37297856 54.41915267 31.52851245 54.47036672 43.68408203 54.53344727 C43.68408203 50.57344727 43.68408203 46.61344727 43.68408203 42.53344727 C25.53408203 42.53344727 7.38408203 42.53344727 -11.31591797 42.53344727 C-11.35716797 37.19157227 -11.39841797 31.84969727 -11.44091797 26.34594727 C-11.45912598 24.66863525 -11.47733398 22.99132324 -11.49609375 21.26318359 C-11.5019392 19.92228515 -11.50703463 18.58138314 -11.51123047 17.24047852 C-11.5214624 16.55352905 -11.53169434 15.86657959 -11.54223633 15.15881348 C-11.54411588 9.95338872 -10.91299945 6.46302131 -7.57080078 2.42501831 C-4.82336966 0.12025944 -3.54370561 0.0235604 0 0 Z " fill="#E4F5F3" transform="translate(296.31591796875,90.466552734375)"/>
<path d="M0 0 C1.21077209 -0.00761353 2.42154419 -0.01522705 3.66900635 -0.02307129 C6.22755882 -0.03386113 8.7861553 -0.03672996 11.34472656 -0.03222656 C15.2383879 -0.03125678 19.13006169 -0.07284381 23.0234375 -0.1171875 C25.51562092 -0.12239683 28.00781114 -0.12508266 30.5 -0.125 C32.23174469 -0.1495929 32.23174469 -0.1495929 33.99847412 -0.17468262 C42.0781906 -0.10639708 49.04469291 1.36351159 55.16400146 6.9822998 C56.515625 8.53125 56.515625 8.53125 58.515625 11.46875 C59.06645752 12.2736084 59.06645752 12.2736084 59.62841797 13.09472656 C61.01644307 16.80885867 60.75967646 20.46021987 60.7109375 24.390625 C60.7081076 25.25061096 60.70527771 26.11059692 60.70236206 26.99664307 C60.6911865 29.73748821 60.66608679 32.47800398 60.640625 35.21875 C60.6305918 37.07942236 60.62146655 38.94009985 60.61328125 40.80078125 C60.59125576 45.35689732 60.55674397 49.91276786 60.515625 54.46875 C61.59980713 54.45303955 62.68398926 54.4373291 63.80102539 54.42114258 C67.84701017 54.36659093 71.89296282 54.33230867 75.93920898 54.30395508 C77.6860095 54.28892571 79.43277265 54.26849646 81.17944336 54.24243164 C83.69915015 54.2057892 86.21835539 54.18896508 88.73828125 54.17578125 C89.51148209 54.16029739 90.28468292 54.14481354 91.08131409 54.12886047 C97.71198044 54.12683077 103.06754357 55.83689186 108.265625 60.15625 C108.81734375 60.59324219 109.3690625 61.03023437 109.9375 61.48046875 C115.26225454 68.18913227 114.96992416 76.0343627 114.94921875 84.18359375 C114.9544606 85.39390762 114.95970245 86.6042215 114.96510315 87.85121155 C114.97150548 90.40202062 114.97020966 92.95285929 114.96166992 95.50366211 C114.95315981 99.39034969 114.98195001 103.27556668 115.01367188 107.16210938 C115.01528416 109.64843706 115.01470584 112.13476733 115.01171875 114.62109375 C115.02295273 115.77447739 115.03418671 116.92786102 115.04576111 118.11619568 C114.98240126 125.50964073 114.18695925 132.23373902 109.17454529 138.01573181 C102.96096792 143.62374458 96.7515355 144.92218945 88.73828125 144.76171875 C87.92693222 144.75747391 87.11558319 144.75322906 86.27964783 144.74885559 C83.71212244 144.73218867 81.14540936 144.69456048 78.578125 144.65625 C76.82748537 144.6411876 75.07683332 144.62750193 73.32617188 144.61523438 C69.05568108 144.58232468 64.78579031 144.53062726 60.515625 144.46875 C60.54180908 145.60828125 60.56799316 146.7478125 60.5949707 147.921875 C60.68595612 152.17834586 60.74304858 156.43473201 60.7902832 160.69189453 C60.81531789 162.52895599 60.84935645 164.36591893 60.89282227 166.20263672 C60.95396537 168.85408927 60.98194457 171.50421734 61.00390625 174.15625 C61.02971268 174.96803711 61.0555191 175.77982422 61.08210754 176.61621094 C61.08507467 182.74605157 59.31553647 186.68171676 55.515625 191.46875 C48.15696763 198.63375849 40.6423046 198.92701293 30.86328125 198.90234375 C29.64918076 198.9075856 28.43508026 198.91282745 27.18418884 198.91822815 C24.62320722 198.92463577 22.06219612 198.92332775 19.5012207 198.91479492 C15.59467897 198.90628606 11.68960057 198.93506554 7.78320312 198.96679688 C5.28906294 198.96840913 2.79492017 198.96783089 0.30078125 198.96484375 C-0.86090073 198.97607773 -2.0225827 198.98731171 -3.21946716 198.99888611 C-10.99393837 198.93246141 -16.41214302 197.91206585 -22.5078125 192.7578125 C-23.17683594 191.93410156 -23.17683594 191.93410156 -23.859375 191.09375 C-24.32085937 190.54976562 -24.78234375 190.00578125 -25.2578125 189.4453125 C-28.58101697 184.09008491 -28.76044808 178.87872552 -28.6796875 172.7890625 C-28.6768576 171.97629852 -28.67402771 171.16353455 -28.67111206 170.32614136 C-28.65998119 167.74852325 -28.63489015 165.17126181 -28.609375 162.59375 C-28.59933601 160.83854671 -28.59021177 159.08333794 -28.58203125 157.328125 C-28.56006515 153.04153074 -28.52558478 148.7552007 -28.484375 144.46875 C-29.59361328 144.48969727 -30.70285156 144.51064453 -31.84570312 144.53222656 C-35.99042679 144.60503467 -40.13509476 144.65069695 -44.28027344 144.68847656 C-46.06878184 144.70849959 -47.85722554 144.73572654 -49.64550781 144.77050781 C-52.22737662 144.81943955 -54.8083745 144.84181165 -57.390625 144.859375 C-58.575495 144.89034271 -58.575495 144.89034271 -59.78430176 144.92193604 C-66.35697275 144.92454825 -71.46807737 143.01921016 -76.5078125 138.7578125 C-77.17683594 137.93410156 -77.17683594 137.93410156 -77.859375 137.09375 C-78.32085937 136.54976562 -78.78234375 136.00578125 -79.2578125 135.4453125 C-83.24470101 129.02058133 -82.79085268 122.2196611 -82.78515625 114.9140625 C-82.78944138 113.69854706 -82.7937265 112.48303162 -82.79814148 111.23068237 C-82.80387539 108.66372296 -82.80439198 106.0967473 -82.80004883 103.52978516 C-82.79689183 99.61462501 -82.82035094 95.7002229 -82.84570312 91.78515625 C-82.84797658 89.28645928 -82.8486794 86.78776029 -82.84765625 84.2890625 C-82.856866 83.12424347 -82.86607574 81.95942444 -82.87556458 80.75930786 C-82.83420401 73.44714712 -82.48807059 67.07569826 -77.6171875 61.2265625 C-76.95460937 60.68773437 -76.29203125 60.14890625 -75.609375 59.59375 C-74.62324219 58.76230469 -74.62324219 58.76230469 -73.6171875 57.9140625 C-68.37189563 54.35956068 -63.82073009 54.19477939 -57.68359375 54.2734375 C-56.4290313 54.27768234 -56.4290313 54.27768234 -55.14912415 54.28201294 C-52.48989274 54.2931668 -49.83100382 54.31826237 -47.171875 54.34375 C-45.36393717 54.35378601 -43.55599404 54.36291077 -41.74804688 54.37109375 C-37.32669188 54.39309041 -32.90559142 54.42758706 -28.484375 54.46875 C-28.50008545 53.38980469 -28.5157959 52.31085938 -28.53198242 51.19921875 C-28.58660399 47.16625541 -28.6208414 43.13332427 -28.64916992 39.10009766 C-28.66418354 37.36013272 -28.68460077 35.62020516 -28.71069336 33.88037109 C-28.74740607 31.3680698 -28.76417569 28.8562722 -28.77734375 26.34375 C-28.79282761 25.57571045 -28.80831146 24.8076709 -28.82426453 24.01635742 C-28.82611962 17.95672693 -27.80416667 12.32776686 -23.87109375 7.48046875 C-23.31035156 7.04347656 -22.74960937 6.60648437 -22.171875 6.15625 C-21.61886719 5.70636719 -21.06585938 5.25648437 -20.49609375 4.79296875 C-19.83222656 4.35597656 -19.16835938 3.91898437 -18.484375 3.46875 C-17.71037354 2.95610596 -16.93637207 2.44346191 -16.13891602 1.9152832 C-10.78292007 -0.20471653 -5.71197108 0.00098958 0 0 Z M-14.6796875 14.75805664 C-17.82669629 19.48495579 -17.62319308 23.50993406 -17.58203125 29.078125 C-17.58102417 29.72281738 -17.58001709 30.36750977 -17.57897949 31.03173828 C-17.57376902 33.42742709 -17.55980781 35.82309043 -17.546875 38.21875 C-17.52625 43.58125 -17.505625 48.94375 -17.484375 54.46875 C0.665625 54.46875 18.815625 54.46875 37.515625 54.46875 C37.515625 58.42875 37.515625 62.38875 37.515625 66.46875 C36.23633621 66.45542633 34.95704742 66.44210266 33.63899231 66.42837524 C21.58814102 66.30679211 9.53741402 66.21682424 -2.51391125 66.15787697 C-8.7098107 66.12655263 -14.9052154 66.08405794 -21.10083008 66.01611328 C-27.07901693 65.95096269 -33.05672764 65.91505227 -39.03524208 65.89948654 C-41.31708588 65.88839267 -43.59890335 65.86672881 -45.88054466 65.83436966 C-49.07482766 65.79086522 -52.26713875 65.78481363 -55.46166992 65.78759766 C-56.87939445 65.75524017 -56.87939445 65.75524017 -58.32575989 65.722229 C-63.06132109 65.69912729 -63.06132109 65.69912729 -67.17730141 67.74482346 C-70.56232632 71.64342163 -71.60409233 75.09836796 -71.64550781 80.12036133 C-71.65511536 81.06176468 -71.6647229 82.00316803 -71.67462158 82.97309875 C-71.67887146 83.98873398 -71.68312134 85.0043692 -71.6875 86.05078125 C-71.69320007 87.09771652 -71.69890015 88.14465179 -71.70477295 89.22331238 C-71.71422266 91.43996164 -71.72075682 93.65662496 -71.72460938 95.87329102 C-71.73430716 99.2575749 -71.76532813 102.64124949 -71.796875 106.02539062 C-71.80340598 108.1796839 -71.80865608 110.33398151 -71.8125 112.48828125 C-71.8248468 113.49784378 -71.8371936 114.50740631 -71.84991455 115.54756165 C-71.83287457 120.94646168 -71.57348293 124.83373086 -68.484375 129.46875 C-68.09596436 130.08145752 -67.70755371 130.69416504 -67.30737305 131.32543945 C-64.23298265 133.2535726 -60.8297162 132.83248645 -57.31640625 132.76171875 C-56.61173218 132.75869751 -55.90705811 132.75567627 -55.18103027 132.75256348 C-52.55282918 132.73688664 -49.92483714 132.69500241 -47.296875 132.65625 C-41.41875 132.594375 -35.540625 132.5325 -29.484375 132.46875 C-29.484375 114.31875 -29.484375 96.16875 -29.484375 77.46875 C-25.524375 77.46875 -21.564375 77.46875 -17.484375 77.46875 C-17.49103683 79.33130684 -17.49103683 79.33130684 -17.49783325 81.23149109 C-17.53836395 92.92925804 -17.56835204 104.62701075 -17.58799934 116.32483196 C-17.59843973 122.33889885 -17.61260371 128.35290908 -17.63525391 134.36694336 C-17.656973 140.17002228 -17.66894171 145.97304668 -17.67412949 151.7761631 C-17.6778269 153.99095328 -17.68504694 156.20574044 -17.69583511 158.42050743 C-17.71033746 161.52088258 -17.71235345 164.62103198 -17.71142578 167.72143555 C-17.71861633 168.63853302 -17.72580688 169.55563049 -17.73321533 170.5005188 C-17.71468419 176.21818946 -17.32843556 180.124365 -13.69161987 184.74790955 C-10.9782943 186.8633071 -9.58048234 186.97951235 -6.16845703 187.00219727 C-5.1070047 187.0180336 -4.04555237 187.03386993 -2.95193481 187.05018616 C-1.23935989 187.04274635 -1.23935989 187.04274635 0.5078125 187.03515625 C1.68650909 187.04135483 2.86520569 187.04755341 4.07962036 187.05393982 C6.57276585 187.0610433 9.06595872 187.05785489 11.55908203 187.04516602 C15.36970692 187.03132597 19.17786477 187.06533757 22.98828125 187.10351562 C25.41145893 187.10446705 27.83463969 187.10260673 30.2578125 187.09765625 C31.39548065 187.11091446 32.5331488 187.12417267 33.70529175 187.13783264 C40.40457131 187.13057086 40.40457131 187.13057086 46.21923828 184.17944336 C50.10335289 179.5945694 49.6563514 175.68571538 49.61328125 169.859375 C49.61227417 169.21468262 49.61126709 168.56999023 49.61022949 167.90576172 C49.60501902 165.51007291 49.59105781 163.11440957 49.578125 160.71875 C49.5575 155.35625 49.536875 149.99375 49.515625 144.46875 C31.365625 144.46875 13.215625 144.46875 -5.484375 144.46875 C-5.484375 140.50875 -5.484375 136.54875 -5.484375 132.46875 C-4.20508621 132.47985306 -2.92579742 132.49095612 -1.60774231 132.50239563 C10.4431446 132.60371521 22.49394519 132.67868858 34.54516125 132.72781086 C40.74098131 132.75391414 46.93645778 132.78932664 53.13208008 132.84594727 C59.11025181 132.90023929 65.08809286 132.93016503 71.06649208 132.94313622 C73.34831257 132.95238101 75.63011479 132.97043387 77.91179466 132.99740028 C81.10590217 133.033652 84.29864009 133.0386968 87.49291992 133.03637695 C88.43806961 133.05435333 89.3832193 133.07232971 90.35700989 133.09085083 C94.85563137 133.05545373 96.8802205 132.94271884 100.57954407 130.18327332 C103.39984756 126.22900701 103.63898436 123.45012279 103.66088867 118.68774414 C103.66726852 117.74318863 103.67364838 116.79863312 103.68022156 115.82545471 C103.68133438 114.81184372 103.6824472 113.79823273 103.68359375 112.75390625 C103.68692215 111.70601425 103.69025055 110.65812225 103.69367981 109.57847595 C103.6987395 107.36360106 103.70108843 105.14871856 103.70092773 102.93383789 C103.70311447 99.54756104 103.7212812 96.16160986 103.74023438 92.77539062 C103.74316844 90.62239695 103.74515315 88.46940172 103.74609375 86.31640625 C103.75687202 84.79902611 103.75687202 84.79902611 103.76786804 83.25099182 C103.76479141 82.30328415 103.76171478 81.35557648 103.75854492 80.37915039 C103.75996994 79.54960342 103.76139496 78.72005646 103.76286316 77.8653717 C103.37434496 74.09924129 102.07022344 71.25771426 99.90722656 68.18066406 C96.48629491 65.73195308 93.29539509 65.96874344 89.25 66.078125 C88.19449951 66.08416748 88.19449951 66.08416748 87.11767578 66.09033203 C84.50005862 66.11119178 81.88281444 66.16703774 79.265625 66.21875 C73.408125 66.30125 67.550625 66.38375 61.515625 66.46875 C61.515625 84.61875 61.515625 102.76875 61.515625 121.46875 C57.555625 121.46875 53.595625 121.46875 49.515625 121.46875 C49.52006622 120.22704544 49.52450745 118.98534088 49.52908325 117.70600891 C49.56961395 106.00824196 49.59960204 94.31048925 49.61924934 82.61266804 C49.62968973 76.59860115 49.64385371 70.58459092 49.66650391 64.57055664 C49.688223 58.76747772 49.70019171 52.96445332 49.70537949 47.1613369 C49.7090769 44.94654672 49.71629694 42.73175956 49.72708511 40.51699257 C49.74158746 37.41661742 49.74360345 34.31646802 49.74267578 31.21606445 C49.75346161 29.84041824 49.75346161 29.84041824 49.76446533 28.4369812 C49.74608573 22.7660674 49.36093177 18.7191653 45.6484375 14.19165039 C40.73296239 11.48836892 35.91219727 11.87831422 30.390625 11.90234375 C29.21097168 11.89614517 28.03131836 11.88994659 26.81591797 11.88356018 C24.32455266 11.87646371 21.83313991 11.87963289 19.34179688 11.89233398 C15.5290612 11.90620113 11.71877852 11.8721195 7.90625 11.83398438 C5.4843744 11.8330332 3.06249573 11.83489192 0.640625 11.83984375 C-0.49906738 11.82658554 -1.63875977 11.81332733 -2.81298828 11.79966736 C-9.17310702 11.83469501 -9.17310702 11.83469501 -14.6796875 14.75805664 Z " fill="#5D619F" transform="translate(302.484375,78.53125)"/>
<path d="M0 0 C4.58527831 3.70724629 8.12513278 8.37539833 10 14 C10.62207865 24.08485189 10.92900013 32.84063775 4 40.75 C-1.55448244 45.86012385 -8.60165979 48.11672653 -16.0625 48.5625 C-23.27742253 48.21838605 -29.54898119 44.95020173 -34.4375 39.6875 C-40.1199677 32.16990109 -41.17258085 24.30247473 -40 15 C-37.6178551 7.28185051 -33.18160326 1.78683366 -26.08984375 -2.02734375 C-17.06497741 -5.92077515 -8.63016461 -4.22561489 0 0 Z " fill="#161717" transform="translate(333,330)"/>
<path d="M0 0 C3.63 0 7.26 0 11 0 C14.10778033 3.17339985 15.98089544 5.58651747 18.20703125 9.30859375 C18.82092209 10.26387466 19.43481293 11.21915558 20.06730652 12.2033844 C22.01971803 15.25955266 23.91608543 18.34634185 25.8125 21.4375 C27.10512996 23.48339496 28.40132062 25.52704482 29.70117188 27.56835938 C32.58478685 32.10775109 35.43320234 36.66710879 38.25154114 41.24729919 C40.76741732 45.20818987 43.3971443 49.09571645 46 53 C46.33 35.51 46.66 18.02 47 0 C50.3 0 53.6 0 57 0 C57 23.43 57 46.86 57 71 C46 71 46 71 43.30078125 68.34375 C42.59874991 67.08358932 41.9385444 65.79958506 41.3125 64.5 C40.50334506 63.03056246 39.68779431 61.56463559 38.8671875 60.1015625 C38.42342773 59.29106445 37.97966797 58.48056641 37.52246094 57.64550781 C34.59184522 52.55311655 31.23180287 47.73661446 27.9375 42.875 C22.17750075 34.31834977 16.57983456 25.67974264 11 17 C10.67 34.82 10.34 52.64 10 71 C6.7 71 3.4 71 0 71 C0 47.57 0 24.14 0 0 Z " fill="#171818" transform="translate(71,306)"/>
<path d="M0 0 C3.40066729 3.02281537 5.91763853 5.94487503 8 10 C8 10.66 8 11.32 8 12 C5.03 12.99 2.06 13.98 -1 15 C-1.47308594 14.38511719 -1.94617188 13.77023437 -2.43359375 13.13671875 C-7.05579947 7.4873562 -10.67507584 4.09873862 -18 3 C-26.30663742 2.18120288 -32.5211406 3.39601198 -39.6875 7.5625 C-45.33535457 13.515644 -47.32745901 19.37912714 -47.5 27.5625 C-47.23509725 34.85468406 -46.02472239 40.4364886 -42.4375 46.75 C-37.03520152 51.73673706 -31.31765468 54.30206482 -23.9375 54.5 C-16.93555143 54.18419046 -10.99481589 53.05141437 -6 48 C-5.34 48 -4.68 48 -4 48 C-3.731875 47.195625 -3.46375 46.39125 -3.1875 45.5625 C-2.795625 44.716875 -2.40375 43.87125 -2 43 C2.17587745 41.60804085 4.13474776 43.17676781 8 45 C6.73264114 51.33679429 2.89209539 55.08632369 -2 59 C-4.90749115 60.66702696 -7.84984763 61.87282684 -11 63 C-11.928125 63.4125 -12.85625 63.825 -13.8125 64.25 C-23.72355798 66.58201364 -33.50015784 65.11311821 -42.3125 60.125 C-49.97120608 54.06927891 -56.27097488 46.8198068 -58 37 C-59.28549003 24.38906128 -57.82519632 14.52162955 -50.875 3.6875 C-35.92120206 -10.29105025 -16.69766534 -12.34969559 0 0 Z " fill="#171818" transform="translate(412,313)"/>
<path d="M0 0 C5.44843505 3.59802314 7.79572413 6.98063128 10 13 C10 16.96 10 20.92 10 25 C-2.54 25 -15.08 25 -28 25 C-25.92135124 32.83693583 -25.92135124 32.83693583 -21.0078125 38.19140625 C-16.57745129 39.97561787 -11.64815118 39.75071082 -7 39 C-3.52594737 37.30003684 -2.17299657 36.25949485 0 33 C2.97 33.33 5.94 33.66 9 34 C7.01642807 39.78541813 4.41884486 43.46406876 -1.0625 46.25 C-7.95604413 49.47845445 -14.92415089 50.31091097 -22.25 47.8125 C-29.04856234 44.83043442 -32.99390979 40.70373929 -36.08203125 34.0078125 C-38.65402454 25.58043024 -38.09951539 16.06042373 -34.32421875 8.0859375 C-26.68980515 -3.93995295 -12.2223951 -5.71915846 0 0 Z " fill="#1B1C1C" transform="translate(181,329)"/>
<path d="M0 0 C4.51061121 3.47961436 6.92443092 8.21420067 8.1875 13.6875 C8.1875 16.9875 8.1875 20.2875 8.1875 23.6875 C-4.3525 23.6875 -16.8925 23.6875 -29.8125 23.6875 C-27.75891538 32.90373996 -27.75891538 32.90373996 -21.8125 37.6875 C-18.08902266 38.92865911 -14.68035828 39.2295862 -10.8125 38.6875 C-7.80627807 37.04258612 -5.55177746 35.58748995 -3.375 32.9375 C-0.7154857 30.80988856 1.9380081 31.39209165 5.1875 31.6875 C5.8475 32.3475 6.5075 33.0075 7.1875 33.6875 C3.29508464 40.12495617 -1.33044631 44.77919147 -8.6171875 47.17578125 C-16.04638918 48.90749908 -21.90398331 47.94906898 -28.55078125 44.234375 C-34.46405507 40.19006337 -38.38751693 34.74233423 -39.8125 27.6875 C-40.82167059 18.94135492 -40.01363552 11.93756769 -34.8125 4.6875 C-25.02857151 -6.52127245 -12.56486537 -5.86360384 0 0 Z " fill="#1B1C1B" transform="translate(557.8125,330.3125)"/>
<path d="M0 0 C1.02867187 -0.01740234 1.02867187 -0.01740234 2.078125 -0.03515625 C7.50963013 -0.00405985 11.59579395 1.18208997 15.64453125 4.875 C19.43789512 9.7467449 20.13035415 12.9251571 20.31640625 19.01171875 C20.35830078 20.31044922 20.40019531 21.60917969 20.44335938 22.94726562 C20.48316987 24.31900761 20.52288216 25.69075244 20.5625 27.0625 C20.60570835 28.44597645 20.64932339 29.82944027 20.69335938 31.21289062 C20.79958028 34.60015719 20.90162358 37.98749799 21 41.375 C22.65 42.035 24.3 42.695 26 43.375 C26 45.685 26 47.995 26 50.375 C18.02201622 51.00072422 18.02201622 51.00072422 13.9375 48.5 C12 46.375 12 46.375 12 44.375 C11.48050781 44.71273437 10.96101563 45.05046875 10.42578125 45.3984375 C3.60997831 49.75752774 -1.72495463 52.52273746 -10 51.375 C-13.6496588 50.0765637 -16.31447321 48.12686809 -18.9375 45.25 C-20.99640572 39.67884336 -20.88460545 34.45189976 -18.5625 29 C-11.14874263 21.40541928 -0.01063832 20.89211166 10 19.375 C9.71640548 14.1292984 9.71640548 14.1292984 7.7734375 9.40625 C3.91084416 7.16016048 -0.7223632 7.68707595 -5 8.375 C-7.89683868 10.5765974 -9.39297231 12.16094462 -11 15.375 C-13.64 15.045 -16.28 14.715 -19 14.375 C-18.54625711 9.49726395 -17.47822112 6.85322112 -14 3.375 C-9.33512368 0.51543771 -5.36853177 -0.09082103 0 0 Z " fill="#191A1A" transform="translate(450,326.625)"/>
<path d="M0 0 C3.3 0 6.6 0 10 0 C10.01458252 1.03406982 10.02916504 2.06813965 10.04418945 3.13354492 C10.10230882 6.98236082 10.17954023 10.83059999 10.26245117 14.67895508 C10.29563655 16.34227108 10.32368834 18.00569796 10.34643555 19.66918945 C10.38009999 22.06509499 10.4324194 24.45999035 10.48828125 26.85546875 C10.49467117 27.5952446 10.5010611 28.33502045 10.50764465 29.09721375 C10.63357804 33.55293624 11.23555787 36.46668339 14 40 C17.78684541 42.5245636 19.50649627 42.08522293 23.84375 41.47265625 C26.60461894 40.86746578 28.11019256 40.11658433 30 38 C32.10432134 33.82251469 32.33784847 29.88531235 32.4140625 25.29296875 C32.43342865 24.56757401 32.4527948 23.84217926 32.4727478 23.09480286 C32.53222108 20.79248578 32.57879845 18.49011781 32.625 16.1875 C32.66320958 14.62042168 32.70226303 13.05336369 32.7421875 11.48632812 C32.83789563 7.65771848 32.92204448 3.82901058 33 0 C35.97 0 38.94 0 42 0 C42 16.5 42 33 42 50 C39.03 50 36.06 50 33 50 C32.67 48.35 32.34 46.7 32 45 C31.54109375 45.34933594 31.0821875 45.69867188 30.609375 46.05859375 C29.68898437 46.74115234 29.68898437 46.74115234 28.75 47.4375 C28.14671875 47.88996094 27.5434375 48.34242188 26.921875 48.80859375 C22.84469452 51.33611417 18.71149026 51.31942307 14 51 C8.10249373 49.24109462 4.18086273 46.23027765 1 41 C-0.19492614 36.57810399 -0.12845236 32.18129293 -0.09765625 27.63671875 C-0.0962413 26.84473587 -0.09482635 26.05275299 -0.09336853 25.23677063 C-0.08779457 22.72030781 -0.07524693 20.20393569 -0.0625 17.6875 C-0.05748163 15.97591275 -0.05291931 14.26432409 -0.04882812 12.55273438 C-0.03783368 8.36845492 -0.02058707 4.18424281 0 0 Z " fill="#171818" transform="translate(203,327)"/>
<path d="M0 0 C4.63570446 1.79068728 8.00831256 4.36214117 10.5 8.6875 C12.79778542 14.1344824 12.95984504 19.56255497 11.375 25.23828125 C9.38931131 29.9454272 6.61240613 32.70462861 2.1484375 35.15234375 C-1.58609865 36.62578801 -3.98925446 36.582205 -8 36 C-12.95520521 33.42710499 -16.49116963 30.01766074 -19 25 C-19.93739328 13.01365965 -19.93739328 13.01365965 -17.3125 7.375 C-11.9661645 1.88416894 -7.88214719 -1.18923624 0 0 Z " fill="#DFF1EE" transform="translate(322,334)"/>
<path d="M0 0 C3.3 0 6.6 0 10 0 C10.33 1.98 10.66 3.96 11 6 C11.825 5.195625 12.65 4.39125 13.5 3.5625 C17.18112274 0.44499414 20.26353911 0.24498936 25 0 C25 2.97 25 5.94 25 9 C22.89625 9.3403125 22.89625 9.3403125 20.75 9.6875 C17.24611856 10.45879466 16.15545729 10.84842915 13.5 13.4375 C10.9840615 17.7355616 10.82399178 21.16028757 10.68359375 26.07421875 C10.66281265 26.7580513 10.64203156 27.44188385 10.62062073 28.1464386 C10.55533846 30.3266921 10.49633983 32.50706405 10.4375 34.6875 C10.39429447 36.16732986 10.35067953 37.64714783 10.30664062 39.12695312 C10.19967917 42.75117622 10.09835177 46.37553189 10 50 C6.7 50 3.4 50 0 50 C0 33.5 0 17 0 0 Z " fill="#1B1C1C" transform="translate(487,327)"/>
<path d="M0 0 C3.3 0 6.6 0 10 0 C10.33 1.98 10.66 3.96 11 6 C11.825 5.195625 12.65 4.39125 13.5 3.5625 C17.18112274 0.44499414 20.26353911 0.24498936 25 0 C25 2.97 25 5.94 25 9 C23.5975 9.2475 22.195 9.495 20.75 9.75 C16.74564224 10.64405472 14.44552921 11.53550028 12 15 C10.7537847 18.65754385 10.79364823 22.3356904 10.68359375 26.171875 C10.66281265 26.8542926 10.64203156 27.53671021 10.62062073 28.23980713 C10.55547948 30.40977356 10.49640596 32.57985624 10.4375 34.75 C10.39428103 36.22527221 10.35066568 37.70053287 10.30664062 39.17578125 C10.19983482 42.78373166 10.09846847 46.39181133 10 50 C6.7 50 3.4 50 0 50 C0 33.5 0 17 0 0 Z " fill="#1B1B1B" transform="translate(262,327)"/>
<path d="M0 0 C4.1511084 1.71458825 6.53880242 4.26262589 9 8 C9 9.32 9 10.64 9 12 C-0.24 12 -9.48 12 -19 12 C-17.11015122 6.33045367 -16.25049054 4.71917922 -12 1 C-8.31088477 -0.84455761 -4.03542855 -0.35062965 0 0 Z " fill="#E0F1EF" transform="translate(547,334)"/>
<path d="M0 0 C1.609375 1.19140625 1.609375 1.19140625 4.046875 4.12890625 C4.376875 6.43890625 4.706875 8.74890625 5.046875 11.12890625 C-3.863125 11.12890625 -12.773125 11.12890625 -21.953125 11.12890625 C-20.82487133 4.35938424 -20.82487133 4.35938424 -18.078125 2.31640625 C-12.8711359 -1.32848612 -6.02400963 -2.68670829 0 0 Z " fill="#DFF1EE" transform="translate(175.953125,334.87109375)"/>
<path d="M0 0 C-0.3363491 6.5027492 -1.3167208 9.42563427 -6 14 C-9.08007326 16.3366073 -12.32674352 16.42494795 -16.09375 16.3125 C-18 16 -18 16 -20.5 14.375 C-22.44405832 11.29690766 -22.608676 9.57597151 -22 6 C-19.02078922 3.17464517 -16.06927044 2.26093144 -12.125 1.3125 C-11.11695313 1.06113281 -10.10890625 0.80976563 -9.0703125 0.55078125 C-5.97749767 -0.00403668 -3.13482106 -0.09825559 0 0 Z " fill="#E0F1EF" transform="translate(461,354)"/>
</svg>
